<?xml version="1.0" encoding="UTF-8"?>
<svg viewBox="120.906 194.47 38.742 38.965" width="38.742" height="38.965" version="1.1" xmlns="http://www.w3.org/2000/svg" xmlns:xlink="http://www.w3.org/1999/xlink">
  <path fill="#fff" d="M140.277 194.47c2.523 0 4.945.436 7.264 1.308a18.951 18.951 0 0 1 6.206 3.813c1.819 1.67 3.257 3.711 4.314 6.123 1.058 2.412 1.587 5.158 1.587 8.239 0 3.08-.529 5.826-1.587 8.238-1.057 2.412-2.495 4.453-4.314 6.123a18.951 18.951 0 0 1-6.206 3.813 20.47 20.47 0 0 1-7.264 1.308 20.47 20.47 0 0 1-7.264-1.308 18.951 18.951 0 0 1-6.207-3.813c-1.818-1.67-3.256-3.711-4.314-6.123-1.057-2.412-1.586-5.158-1.586-8.238 0-3.08.529-5.827 1.586-8.239 1.058-2.412 2.496-4.453 4.314-6.123a18.951 18.951 0 0 1 6.207-3.813 20.47 20.47 0 0 1 7.264-1.308Zm-.728 12.77a5.795 5.795 0 0 1 1.824 0c.68-.269 1.247-.83 1.588-1.554a7.244 7.244 0 0 0-5 0c.342.724.908 1.285 1.588 1.554Zm6.994 10.767c-.16.309-.335.6-.525.875a3.654 3.654 0 0 0 .37 2.358 9.514 9.514 0 0 0 1.626-2.279c.449-.87.762-1.788.947-2.72a2.763 2.763 0 0 0-2.004.818 8.224 8.224 0 0 1-.414.948Zm-12.007 3.233a3.66 3.66 0 0 0 .369-2.358 7.912 7.912 0 0 1-.94-1.823 2.763 2.763 0 0 0-2.004-.818c.186.932.5 1.85.947 2.72.449.87 1 1.633 1.628 2.279Zm13.558-11.692c.352-.95.535-1.964.535-2.99 0-4.2-2.785-6.466-3.952-7.191a.838.838 0 0 0-1.12.219.896.896 0 0 0 .09 1.168 4.785 4.785 0 0 1 1.446 3.455c0 2.626-2.077 4.762-4.632 4.762-2.554 0-4.631-2.136-4.631-4.762 0-1.318.513-2.545 1.445-3.455a.896.896 0 0 0 .091-1.168.838.838 0 0 0-1.12-.22c-1.166.725-3.952 2.992-3.952 7.193 0 1.025.183 2.039.534 2.989a8.031 8.031 0 0 0-2.784 1.018c-3.539 2.1-4.055 5.715-4.082 7.115a.87.87 0 0 0 .744.888.855.855 0 0 0 .939-.665 4.71 4.71 0 0 1 2.187-3.015c2.208-1.31 5.044-.542 6.327 1.743 1.277 2.274.517 5.193-1.695 6.506a4.48 4.48 0 0 1-3.632.44.847.847 0 0 0-1.03.503.89.89 0 0 0 .375 1.107c1.214.688 4.512 2.013 8.034-.077a8.244 8.244 0 0 0 2.25-1.97 8.245 8.245 0 0 0 2.25 1.97c3.537 2.099 6.839.755 8.035.077a.89.89 0 0 0 .375-1.107.847.847 0 0 0-1.03-.503 4.48 4.48 0 0 1-3.632-.44c-2.212-1.313-2.973-4.232-1.696-6.506 1.275-2.27 4.105-3.062 6.328-1.743a4.71 4.71 0 0 1 2.187 3.015.855.855 0 0 0 .938.665.87.87 0 0 0 .745-.888c-.027-1.4-.543-5.014-4.082-7.115a8.03 8.03 0 0 0-2.785-1.018Zm-7.633 5.404a.862.862 0 0 1-.85-.874c0-.482.382-.873.85-.873.47 0 .85.391.85.873 0 .483-.38.874-.85.874Z"/>
</svg>