<?xml version="1.0" standalone="no"?>
<!DOCTYPE svg PUBLIC "-//W3C//DTD SVG 20010904//EN"
 "http://www.w3.org/TR/2001/REC-SVG-20010904/DTD/svg10.dtd">
<svg version="1.0" xmlns="http://www.w3.org/2000/svg"
 width="700.000000pt" height="700.000000pt" viewBox="0 0 700.000000 700.000000"
 preserveAspectRatio="xMidYMid meet">
<metadata>
Created by potrace 1.14, written by Peter Selinger 2001-2017
</metadata>
<g transform="translate(0.000000,700.000000) scale(0.100000,-0.100000)"
fill="#000000" stroke="none">
<path d="M3269 6996 c-2 -2 -44 -7 -94 -10 -128 -10 -289 -32 -430 -60 -209
-41 -550 -149 -730 -231 -207 -94 -341 -166 -505 -273 -94 -61 -311 -219 -330
-241 -3 -3 -41 -38 -85 -77 -290 -258 -520 -555 -707 -916 -92 -177 -180 -388
-226 -543 -38 -130 -60 -210 -66 -240 -4 -16 -9 -41 -12 -55 -13 -65 -44 -249
-49 -299 -4 -31 -8 -67 -11 -81 -26 -161 -25 -767 1 -945 2 -16 6 -48 9 -70
26 -235 94 -521 179 -750 208 -560 531 -1019 987 -1401 93 -79 331 -246 427
-301 176 -101 331 -177 483 -237 25 -10 54 -22 65 -27 82 -35 399 -130 485
-145 14 -3 41 -9 60 -14 40 -11 261 -47 330 -54 25 -2 77 -8 115 -12 144 -16
705 -8 775 11 8 2 38 6 67 9 201 21 538 103 773 189 635 232 1173 629 1562
1153 198 268 387 636 487 949 45 144 99 368 115 480 4 23 8 50 10 60 2 11 7
49 11 85 4 36 9 68 11 71 9 16 19 272 18 499 0 230 -7 380 -18 450 -3 14 -7
52 -11 85 -22 203 -126 630 -185 760 -5 11 -21 52 -36 90 -39 103 -162 347
-237 472 -167 277 -335 480 -611 739 -56 52 -266 213 -371 283 -273 182 -563
322 -880 424 -105 34 -304 86 -390 103 -22 4 -46 8 -53 10 -12 2 -108 18 -180
29 -13 2 -53 7 -90 10 -37 4 -78 9 -92 12 -29 5 -566 14 -571 9z m-339 -879
c42 -27 70 -74 74 -121 5 -46 -21 -93 -97 -183 -102 -119 -161 -239 -192 -387
-31 -152 -16 -345 36 -480 41 -103 87 -178 179 -289 30 -36 146 -125 210 -160
80 -44 195 -83 275 -93 323 -41 622 93 804 362 110 162 152 306 147 509 -5
222 -79 403 -236 575 -57 63 -75 106 -65 158 24 133 146 169 276 82 310 -209
544 -548 628 -910 28 -122 32 -158 36 -320 4 -189 -20 -356 -74 -512 -14 -41
-16 -58 -8 -59 43 -3 202 -47 284 -80 80 -31 231 -109 269 -138 12 -9 32 -23
44 -31 107 -70 258 -220 346 -342 158 -220 265 -521 281 -793 5 -93 3 -117
-11 -147 -40 -84 -154 -112 -228 -56 -37 28 -44 41 -78 153 -49 159 -152 309
-282 411 -338 265 -812 233 -1106 -75 -146 -153 -225 -333 -239 -546 -28 -442
278 -831 707 -899 117 -19 231 -12 351 22 55 15 106 7 145 -23 80 -61 85 -173
12 -243 -55 -51 -288 -142 -453 -177 -109 -23 -123 -25 -260 -29 -332 -9 -648
96 -924 308 -60 46 -241 224 -241 237 0 3 -53 -46 -117 -110 -169 -167 -345
-281 -553 -355 -222 -80 -477 -102 -710 -62 -14 2 -43 7 -65 11 -67 11 -265
80 -348 121 -129 63 -164 115 -144 214 18 89 121 138 217 104 34 -13 169 -30
225 -28 156 3 310 52 440 138 73 48 174 143 212 199 15 23 30 44 33 47 14 13
71 132 90 188 34 103 48 198 45 311 -16 544 -517 930 -1040 800 -133 -33 -296
-130 -395 -235 -99 -106 -161 -215 -200 -350 -28 -97 -43 -120 -100 -149 -66
-34 -153 -6 -194 64 -34 58 -22 230 29 438 134 534 543 945 1075 1079 88 22
110 31 107 43 -3 9 -16 54 -30 101 -26 89 -33 121 -43 205 -3 28 -8 61 -10 75
-5 31 -6 258 0 285 2 11 7 47 10 80 11 95 60 272 104 374 113 261 313 502 550
662 63 42 81 49 121 49 33 0 58 -7 81 -23z m790 -1066 c71 -11 84 -13 150 -30
41 -11 100 -31 108 -37 8 -5 -33 -72 -72 -119 -51 -62 -85 -92 -142 -126 -43
-25 -47 -25 -231 -24 l-189 0 -49 30 c-61 35 -141 116 -183 184 -29 46 -30 51
-14 60 43 22 193 56 293 67 35 3 65 7 67 9 6 5 204 -5 262 -14z m-1553 -1991
c114 -40 192 -102 214 -169 16 -50 64 -143 113 -220 40 -65 40 -65 41 -166 0
-55 -3 -113 -7 -130 -12 -53 -28 -104 -47 -145 l-18 -41 -57 63 c-119 132
-249 349 -320 535 -31 80 -86 268 -86 294 0 14 104 1 167 -21z m2903 27 c0 -1
-13 -53 -30 -114 -73 -279 -209 -529 -409 -756 l-25 -28 -18 34 c-38 76 -57
174 -55 286 3 106 3 106 44 171 43 67 83 144 110 215 28 72 125 141 248 175
51 14 135 25 135 17z"/>
<path d="M3501 3629 c-76 -16 -125 -83 -118 -162 7 -85 68 -142 150 -142 65 0
112 31 138 89 51 118 -46 241 -170 215z"/>
</g>
</svg>
