<?xml version="1.0" standalone="no"?>
<!DOCTYPE svg PUBLIC "-//W3C//DTD SVG 20010904//EN"
 "http://www.w3.org/TR/2001/REC-SVG-20010904/DTD/svg10.dtd">
<svg version="1.0" xmlns="http://www.w3.org/2000/svg"
 width="700.000000pt" height="700.000000pt" viewBox="0 0 700.000000 700.000000"
 preserveAspectRatio="xMidYMid meet">
<metadata>
Created by potrace 1.14, written by Peter Selinger 2001-2017
</metadata>
<g transform="translate(0.000000,700.000000) scale(0.100000,-0.100000)"
fill="#000000" stroke="none">
<path d="M3248 6995 c-2 -2 -37 -6 -78 -10 -151 -13 -181 -17 -340 -45 -143
-25 -152 -27 -260 -56 -136 -35 -357 -109 -485 -161 -120 -48 -396 -187 -472
-236 -290 -187 -429 -295 -617 -481 -180 -179 -208 -209 -311 -346 -124 -164
-222 -323 -318 -516 -51 -101 -99 -210 -166 -376 -32 -80 -118 -403 -126 -475
-2 -12 -6 -34 -9 -50 -15 -67 -23 -121 -32 -198 -3 -32 -8 -68 -10 -79 -22
-102 -22 -788 1 -941 2 -16 14 -95 25 -175 23 -157 80 -398 130 -550 128 -387
352 -786 615 -1097 70 -82 288 -300 365 -364 36 -30 67 -57 70 -60 19 -21 373
-269 385 -269 2 0 28 -14 57 -31 162 -96 466 -232 638 -287 117 -37 312 -92
348 -98 15 -3 43 -9 62 -14 41 -10 190 -36 270 -46 30 -4 66 -8 80 -10 154
-21 686 -23 838 -3 31 4 82 10 112 14 30 3 62 8 70 10 8 2 35 7 60 10 24 4 47
8 50 10 3 2 23 6 45 9 22 4 58 11 80 17 22 6 51 13 65 16 209 37 691 225 905
353 28 17 68 40 90 52 78 41 330 219 401 283 7 5 43 36 82 69 103 87 276 266
382 396 191 236 324 459 484 812 62 136 150 421 180 578 2 14 9 45 14 70 6 25
13 63 16 85 4 23 8 51 10 62 3 12 7 46 10 75 4 29 8 64 11 76 16 86 24 687 11
846 -26 304 -124 764 -202 941 -7 17 -29 70 -49 120 -49 119 -187 386 -263
508 -398 635 -1035 1124 -1790 1376 -111 37 -352 104 -417 116 -152 27 -237
40 -320 49 -22 3 -65 7 -95 11 -55 6 -596 15 -602 10z m-310 -885 c32 -24 57
-66 65 -111 7 -38 -22 -93 -102 -194 -91 -116 -154 -236 -177 -340 -39 -176
-27 -377 30 -524 106 -269 339 -469 614 -527 110 -22 306 -19 354 7 10 5 18 8
18 5 0 -8 101 29 160 59 162 81 296 219 384 394 57 113 79 212 80 366 0 159
-22 260 -87 395 -24 50 -111 173 -150 212 -69 69 -81 170 -27 236 41 50 130
62 200 27 49 -25 166 -117 239 -188 211 -205 355 -453 426 -734 30 -119 38
-191 38 -348 1 -188 -17 -321 -64 -469 -10 -33 -19 -66 -19 -73 0 -6 24 -16
53 -23 174 -41 409 -140 521 -221 164 -118 297 -252 394 -394 101 -150 204
-394 228 -544 2 -14 9 -48 15 -76 19 -89 21 -251 3 -288 -38 -80 -144 -106
-221 -55 -36 24 -43 36 -77 135 -75 218 -177 356 -347 469 -142 95 -296 139
-474 137 -364 -5 -692 -270 -787 -634 -31 -122 -31 -321 2 -439 120 -439 547
-708 975 -614 103 22 150 20 195 -10 88 -58 92 -185 7 -250 -82 -63 -320 -148
-517 -186 -68 -13 -281 -17 -375 -6 -323 35 -611 175 -860 417 l-120 117 -95
-90 c-162 -155 -267 -231 -418 -307 -290 -145 -648 -183 -972 -105 -36 9 -69
20 -74 25 -6 5 -17 9 -25 9 -26 0 -197 70 -252 103 -96 57 -122 133 -79 222
31 65 107 92 194 70 271 -69 544 -5 757 179 223 192 328 481 284 781 -41 276
-226 526 -471 636 -38 17 -76 34 -85 39 -38 20 -181 42 -274 42 -213 0 -417
-86 -576 -243 -109 -108 -158 -188 -214 -351 -40 -116 -65 -150 -122 -169 -66
-21 -148 14 -178 78 -43 90 0 381 90 616 129 333 390 620 710 779 88 44 184
80 305 114 52 14 98 29 102 33 4 3 -6 50 -22 104 -16 54 -32 119 -36 145 -3
26 -10 70 -15 97 -9 54 -5 368 5 425 47 258 165 527 300 688 141 168 284 297
401 361 51 28 118 24 163 -9z m734 -1054 c35 -4 75 -9 88 -11 14 -3 37 -7 51
-10 48 -9 158 -45 164 -54 8 -15 -72 -127 -129 -179 -90 -82 -104 -86 -311
-87 -201 -2 -212 1 -295 70 -51 43 -135 145 -145 176 -9 28 1 34 110 60 179
43 294 51 467 35z m-1537 -1987 c120 -31 229 -115 253 -196 6 -21 41 -90 78
-153 l66 -115 0 -110 c0 -111 -14 -182 -51 -266 l-18 -38 -35 37 c-138 146
-280 388 -357 606 -22 64 -43 126 -46 139 -2 12 -9 40 -14 61 -5 22 -7 44 -5
48 6 9 64 3 129 -13z m2931 4 c-3 -10 -14 -53 -26 -96 -34 -130 -59 -196 -125
-332 -71 -145 -119 -221 -216 -346 -94 -120 -92 -119 -117 -62 -11 27 -26 68
-32 93 -15 56 -21 232 -9 276 8 28 58 120 86 157 5 7 24 47 43 89 23 55 46 90
77 119 66 61 200 115 291 118 27 1 32 -2 28 -16z"/>
<path d="M3460 3612 c-62 -34 -92 -110 -69 -180 21 -68 69 -102 144 -104 135
-2 199 166 100 262 -44 43 -120 52 -175 22z"/>
</g>
</svg>
