<?xml version="1.0" encoding="UTF-8"?>
<svg width="382px" height="40px" viewBox="0 0 382 40" version="1.1" xmlns="http://www.w3.org/2000/svg" xmlns:xlink="http://www.w3.org/1999/xlink">
    <title>logo</title>
    <g stroke="none" stroke-width="1" fill-rule="evenodd">
        <g id="movievirus" fill-rule="nonzero">
            <polygon id="Path" points="39.7080078 1.1484375 39.7080078 39 29.2988281 39 29.2988281 20.6308594 21.6728516 29.2587891 18.5556641 29.2587891 10.9296875 20.6308594 10.9296875 39 0.520507812 39 0.520507812 1.1484375 4.19433594 1.1484375 20.1142578 17.2910156 36.0341797 1.1484375"></polygon>
            <path d="M66.3154297,0.870117188 C68.8388798,0.870117188 71.2602423,1.30614798 73.5795898,2.17822266 C75.8989374,3.05029733 77.9677643,4.32128071 79.7861328,5.99121094 C81.6045013,7.66114116 83.0424752,9.70213638 84.1000977,12.1142578 C85.1577201,14.5263792 85.6865234,17.2724455 85.6865234,20.3525391 C85.6865234,23.4326326 85.1577201,26.1786989 84.1000977,28.5908203 C83.0424752,31.0029417 81.6045013,33.043937 79.7861328,34.7138672 C77.9677643,36.3837974 75.8989374,37.6547808 73.5795898,38.5268555 C71.2602423,39.3989301 68.8388798,39.8349609 66.3154297,39.8349609 C63.7919796,39.8349609 61.3706171,39.3989301 59.0512695,38.5268555 C56.731922,37.6547808 54.663095,36.3837974 52.8447266,34.7138672 C51.0263581,33.043937 49.5883842,31.0029417 48.5307617,28.5908203 C47.4731392,26.1786989 46.9443359,23.4326326 46.9443359,20.3525391 C46.9443359,17.2724455 47.4731392,14.5263792 48.5307617,12.1142578 C49.5883842,9.70213638 51.0263581,7.66114116 52.8447266,5.99121094 C54.663095,4.32128071 56.731922,3.05029733 59.0512695,2.17822266 C61.3706171,1.30614798 63.7919796,0.870117188 66.3154297,0.870117188 Z M65.5880313,13.64 C65.8862585,13.5925217 66.1905968,13.5674012 66.4999449,13.5674012 C66.8092931,13.5674012 67.1136314,13.5925217 67.4119137,13.64 C68.0924906,13.370999 68.6587205,12.8104465 69,12.0854867 C68.2105814,11.796248 67.3708434,11.64 66.5,11.64 C65.6292116,11.64 64.7894737,11.796248 64,12.0855509 C64.3412795,12.8104465 64.9074543,13.370999 65.5880313,13.64 Z M72.5817007,24.406574 C72.4224179,24.7158787 72.2465952,25.0077631 72.0567814,25.2824181 C71.9117163,26.0960833 72.0481149,26.9398207 72.4258166,27.64 C73.0530348,26.9939251 73.6046334,26.2316941 74.0529701,25.3609999 C74.5013068,24.4903056 74.8143778,23.5733905 75,22.6407717 C74.270936,22.6230336 73.5515014,22.9115484 72.9958245,23.4588238 C72.8784582,23.7805896 72.7409834,24.0972693 72.5817007,24.406574 Z M60.5741828,27.64 C60.9518361,26.9398207 61.0882943,26.0960833 60.943226,25.2824181 C60.7534081,25.0076995 60.5775815,24.7158787 60.4182953,24.406574 C60.2590091,24.0972693 60.1214746,23.7805896 60.0042192,23.4588238 C59.4485301,22.9115484 58.7290799,22.6230336 58,22.6407717 C58.1855696,23.5733269 58.498704,24.4903056 58.9470505,25.3609999 C59.3952837,26.2316941 59.9468943,26.9939887 60.5741828,27.64 Z M74.133106,15.9475579 C74.4847291,14.9977488 74.6673941,13.9839397 74.6673941,12.9587748 C74.6673941,8.75882486 71.8828995,6.49174522 70.715486,5.76654761 C70.3424528,5.53477322 69.8595941,5.62923002 69.5953671,5.98556859 C69.33114,6.34190715 69.3704484,6.84569616 69.686558,7.1541075 C70.618631,8.06367639 71.1319622,9.29056655 71.1319622,10.6088271 C71.1319622,13.2346911 69.0541688,15.3710337 66.500087,15.3710337 C63.9460053,15.3710337 61.8682119,13.2346911 61.8682119,10.6088271 C61.8682119,9.29062479 62.3815431,8.06373463 63.3136161,7.1541075 C63.6297257,6.84563792 63.6690341,6.34184892 63.404807,5.98556859 C63.1405233,5.62928826 62.6576646,5.53477322 62.2846881,5.76654761 C61.1184074,6.49098816 58.33278,8.7578931 58.33278,12.9587748 C58.33278,13.9839397 58.515445,14.9977488 58.8670681,15.9475579 C57.8910422,16.1094506 56.9457719,16.4536763 56.0825169,16.9662006 C52.5439131,19.0664376 52.0273534,22.6811863 52.000336,24.0813249 C51.99167,24.529325 52.312764,24.9121021 52.7449862,24.969114 C53.1773784,25.0262423 53.5819602,24.7392031 53.6836295,24.3034905 C53.9834267,23.0190644 54.760192,21.9485346 55.8709086,21.2891423 C58.0788048,19.9782776 60.9146722,20.7470931 62.1980285,23.032109 C63.4749278,25.3062351 62.7144182,28.2246706 60.5027271,29.53769 C59.3917273,30.1969076 58.1016309,30.3533262 56.8702137,29.9780614 C56.4522082,29.8507601 56.0082614,30.06751 55.8401529,30.4810351 C55.6720445,30.8945019 55.8339792,31.3717359 56.2156782,31.5880198 C57.4294236,32.2757725 60.728099,33.6010794 64.2497673,31.5108005 C65.1132489,30.9981598 65.8758541,30.3285764 66.5000304,29.5407182 C67.1242067,30.3285764 67.8868686,30.9981598 68.7503502,31.5108588 C72.2869715,33.6099893 75.5884789,32.2656396 76.7843259,31.5880198 C77.166025,31.3717359 77.3279597,30.8944437 77.1598512,30.4810351 C76.9916861,30.0675682 76.5476827,29.8507601 76.1297904,29.9780614 C74.8984866,30.3533262 73.6083901,30.1969076 72.4975036,29.5378065 C70.2856426,28.2246706 69.5250764,25.3062351 70.8020324,23.0321673 C72.0769492,20.7620594 74.9065295,19.9696589 77.1291522,21.2891423 C78.2398121,21.9485346 79.0165774,23.0190062 79.3163746,24.3034905 C79.4181006,24.7392031 79.8231922,25.0262423 80.255018,24.969114 C80.6872969,24.9121021 81.0082775,24.529325 80.9996682,24.0813249 C80.9728773,22.6811863 80.4564309,19.0664958 76.9177705,16.9662588 C76.0544022,16.4536763 75.1093019,16.1093924 74.133106,15.9475579 Z M66.500087,21.3519776 C66.0311619,21.3519776 65.6504823,20.96064 65.6504823,20.4784561 C65.6504823,19.9962722 66.0311619,19.6049345 66.500087,19.6049345 C66.9690122,19.6049345 67.3496918,19.9962722 67.3496918,20.4784561 C67.3496918,20.96064 66.9690122,21.3519776 66.500087,21.3519776 Z" id="Combined-Shape"></path>
            <polygon id="Path" points="128.213867 1.70507812 110.958008 39.5566406 105.725586 39.5566406 88.4697266 1.70507812 100.604492 1.70507812 108.341797 22.1894531 116.079102 1.70507812"></polygon>
            <polygon id="Path" points="156.212891 29.8154297 156.212891 39 133.223633 39 133.223633 29.8154297 139.513672 29.8154297 139.513672 10.8896484 133.223633 10.8896484 133.223633 1.70507812 156.212891 1.70507812 156.212891 10.8896484 149.922852 10.8896484 149.922852 29.8154297"></polygon>
            <polygon id="Path" points="190.891602 16.2333984 190.891602 24.0263672 176.084961 24.0263672 176.084961 30.09375 192.839844 30.09375 192.839844 39 165.675781 39 165.675781 1.70507812 192.839844 1.70507812 192.839844 10.3330078 176.084961 10.3330078 176.084961 16.2333984"></polygon>
            <polygon id="Path" points="237.59375 1.70507812 220.337891 39.5566406 215.105469 39.5566406 197.849609 1.70507812 209.984375 1.70507812 217.72168 22.1894531 225.458984 1.70507812"></polygon>
            <polygon id="Path" points="265.592773 29.8154297 265.592773 39 242.603516 39 242.603516 29.8154297 248.893555 29.8154297 248.893555 10.8896484 242.603516 10.8896484 242.603516 1.70507812 265.592773 1.70507812 265.592773 10.8896484 259.302734 10.8896484 259.302734 29.8154297"></polygon>
            <path d="M291.03125,1.70507812 C292.923838,1.70507812 294.770011,1.96484115 296.569824,2.484375 C298.369638,3.00390885 299.993157,3.80175243 301.44043,4.87792969 C302.887703,5.95410694 304.047359,7.30858559 304.919434,8.94140625 C305.791508,10.5742269 306.227539,12.4853406 306.227539,14.6748047 C306.227539,17.4580217 305.438973,19.75878 303.861816,21.5771484 C302.28466,23.3955169 300.271497,24.6386685 297.822266,25.3066406 L308.120117,39 L295.428711,39 L285.464844,24.1933594 L285.464844,39 L275.055664,39 L275.055664,1.70507812 L291.03125,1.70507812 Z M285.464844,11.4462891 L285.464844,18.4042969 C286.095706,18.6269542 286.772946,18.8124993 287.496582,18.9609375 C288.220218,19.1093757 288.99023,19.1835938 289.806641,19.1835938 C291.439461,19.1835938 292.803217,18.85889 293.897949,18.2094727 C294.992681,17.5600553 295.540039,16.5673895 295.540039,15.2314453 C295.540039,13.7099533 294.992681,12.698733 293.897949,12.1977539 C292.803217,11.6967748 291.439461,11.4462891 289.806641,11.4462891 L285.464844,11.4462891 Z" id="Combined-Shape"></path>
            <path d="M347.140625,1.59375 L347.140625,24.2490234 C347.140625,27.4775552 346.37989,30.2607305 344.858398,32.5986328 C343.336906,34.9365351 341.305188,36.7270446 338.763184,37.9702148 C336.221179,39.2133851 333.391617,39.8349609 330.274414,39.8349609 C327.194321,39.8349609 324.374036,39.2133851 321.813477,37.9702148 C319.252917,36.7270446 317.211922,34.9365351 315.69043,32.5986328 C314.168938,30.2607305 313.408203,27.4775552 313.408203,24.2490234 L313.408203,1.59375 L323.817383,1.59375 L323.817383,23.5253906 C323.817383,25.4550878 324.336909,27.0414977 325.375977,28.284668 C326.415044,29.5278382 328.04784,30.1308596 330.274414,30.09375 C332.500988,30.0566404 334.133784,29.4350646 335.172852,28.2290039 C336.211919,27.0229432 336.731445,25.4550878 336.731445,23.5253906 L336.731445,1.59375 L347.140625,1.59375 Z" id="Path"></path>
            <path d="M367.90332,0.870117188 C370.092784,0.870117188 372.254384,1.13915747 374.388184,1.67724609 C376.521983,2.21533472 378.238275,2.92968305 379.537109,3.8203125 L379.537109,13.8955078 C377.941398,12.9677688 376.364266,12.160648 374.805664,11.4741211 C373.247063,10.7875942 371.410167,10.4443359 369.294922,10.4443359 C368.070306,10.4443359 367.0127,10.629881 366.12207,11.0009766 C365.231441,11.3720722 364.786133,11.9843707 364.786133,12.8378906 C364.786133,13.7656296 365.324213,14.4614235 366.400391,14.925293 C367.476568,15.3891625 368.793938,15.9179658 370.352539,16.5117188 L374.360352,18.0146484 C377.069349,19.0537161 378.98974,20.4638583 380.121582,22.2451172 C381.253424,24.0263761 381.819336,25.8076083 381.819336,27.5888672 C381.819336,29.9638791 381.132819,32.069815 379.759766,33.9067383 C378.386712,35.7436615 376.531262,37.1909127 374.193359,38.2485352 C371.855457,39.3061576 369.239272,39.8349609 366.344727,39.8349609 C364.118153,39.8349609 361.910167,39.4453164 359.720703,38.6660156 C357.531239,37.8867149 355.620125,36.9218808 353.987305,35.7714844 L353.987305,25.6962891 C355.768564,27.0322332 357.688955,28.1269489 359.748535,28.9804688 C361.808116,29.8339886 363.876943,30.2607422 365.955078,30.2607422 C367.253913,30.2607422 368.302242,30.1030289 369.100098,29.7875977 C369.897953,29.4721664 370.296875,28.9248086 370.296875,28.1455078 C370.296875,27.5888644 370.000003,27.1064474 369.40625,26.6982422 C368.812497,26.290037 368.014653,25.9375015 367.012695,25.640625 L361.724609,23.9707031 C359.646474,23.302731 358.032232,22.3935604 356.881836,21.2431641 C355.73144,20.0927677 354.933596,18.8032298 354.488281,17.3745117 C354.042967,15.9457936 353.820312,14.4892652 353.820312,13.0048828 C353.820312,10.370104 354.488275,8.15284103 355.824219,6.35302734 C357.160163,4.55321366 358.904286,3.18945776 361.056641,2.26171875 C363.208995,1.33397974 365.491199,0.870117188 367.90332,0.870117188 Z" id="Path"></path>
        </g>
    </g>
</svg>